<svg width="21" height="21" viewBox="0 0 21 21" fill="none" xmlns="http://www.w3.org/2000/svg">
<g clip-path="url(#clip0)">
<path d="M20.2867 10.0916C20.108 9.83496 15.8508 3.80774 10.4137 3.80774C4.97653 3.80774 0.719179 9.83496 0.540702 10.0913C0.371483 10.3348 0.371483 10.665 0.540702 10.9085C0.719179 11.1651 4.97653 17.1924 10.4137 17.1924C15.8508 17.1924 20.108 11.1651 20.2867 10.9087C20.4561 10.6653 20.4561 10.3348 20.2867 10.0916ZM10.4137 15.8077C6.40864 15.8077 2.93985 11.8074 1.91301 10.4996C2.93852 9.19064 6.40005 5.19235 10.4137 5.19235C14.4185 5.19235 17.8871 9.19204 18.9144 10.5005C17.8889 11.8094 14.4273 15.8077 10.4137 15.8077Z" fill="#CDCDCD"/>
<path d="M10.4137 6.34631C8.23237 6.34631 6.45764 8.20978 6.45764 10.5002C6.45764 12.7906 8.23237 14.654 10.4137 14.654C12.595 14.654 14.3698 12.7906 14.3698 10.5002C14.3698 8.20978 12.595 6.34631 10.4137 6.34631ZM10.4137 13.2694C8.9594 13.2694 7.77635 12.0272 7.77635 10.5002C7.77635 8.9732 8.95944 7.73096 10.4137 7.73096C11.868 7.73096 13.0511 8.9732 13.0511 10.5002C13.0511 12.0272 11.868 13.2694 10.4137 13.2694Z" fill="#CDCDCD"/>
</g>
<defs>
<clipPath id="clip0">
<rect x="0.413788" width="20" height="21" fill="white"/>
</clipPath>
</defs>
</svg>
